# xmcd
#
# Track frame offsets:
#	150
#	23240
#	40345
#	66585
#	80937
#	99912
#	114940
#	140595
#	155587
#	175380
#	194770
#	216285
#	231017
#
# Disc length: 3342 seconds
#
# Revision: 2
# Processed by: cddbd v1.4PL0 Copyright (c) Steve Scherf et al.
# Submitted via: CDmax 2.0
#
DISCID=c00d0c0d
DTITLE=Little Charlie and the Nightcats - Shadow of the Blues
DYEAR=1998
DGENRE=Blues
TTITLE0=Never Trust a Woman
TTITLE1=New Old Lady
TTITLE2=When Your Woman Is Gone
TTITLE3=You Got Your Hooks In Me
TTITLE4=Big and Fat
TTITLE5=You Don't Love Me That Way
TTITLE6=Walkin' In the Shadow of the Blues
TTITLE7=Got It Good
TTITLE8=Dirty Dealin' Mama
TTITLE9=Percolatin'
TTITLE10=I Don't Drink Much
TTITLE11=Murmur Low
TTITLE12=You Got To Rock
EXTD=LABEL =Alligator Records and Artist Management, Inc.\nID =ALCD4862\nUP
EXTD=C =014551-4862-20\nCOPYRIGHT =1998
EXTT0=
EXTT1=
EXTT2=
EXTT3=
EXTT4=
EXTT5=
EXTT6=
EXTT7=
EXTT8=
EXTT9=
EXTT10=
EXTT11=
EXTT12=
PLAYORDER=
